<?xml version="1.0" encoding="UTF-8"?>
<svg id="Layer_1" xmlns="http://www.w3.org/2000/svg" version="1.1" viewBox="0 0 97 24">
  <!-- Generator: Adobe Illustrator 29.2.1, SVG Export Plug-In . SVG Version: 2.1.0 Build 116)  -->
  <defs>
    <style>
      .st0 {
        fill: #c01f15;
      }

      .st1 {
        fill: #fff;
      }
    </style>
  </defs>
  <path class="st1" d="M80.5,21.6c0,1.3,1.1,2.4,2.4,2.4s2.4-1.1,2.4-2.4-1.1-2.4-2.4-2.4-2.4,1.1-2.4,2.4Z"/>
  <path class="st1" d="M80.8,16.1v-2.8c1.4,0,2.7.2,4,.7,1.3.5,2.4,1.3,3.5,2.3,1,1,1.8,2.2,2.3,3.4.5,1.3.7,2.6.7,3.9h-2.8c0-1-.2-1.9-.6-2.8-.4-.9-.9-1.7-1.7-2.5-.7-.7-1.6-1.3-2.5-1.6-.9-.4-1.9-.5-2.9-.5ZM80.8,10.5v-2.8c2.1,0,4.1.4,6.1,1.1,2,.8,3.8,1.9,5.4,3.5,1.6,1.6,2.8,3.3,3.6,5.3.8,1.9,1.2,3.9,1.1,6h-2.8c0-1.7-.3-3.4-1-5-.7-1.6-1.6-3-2.9-4.3-1.3-1.3-2.8-2.2-4.4-2.9-1.6-.6-3.3-1-5.1-1Z"/>
  <path class="st1" d="M37.5,22.3H0v-1.4h37.5v1.4Z"/>
  <path class="st1" d="M82.6,22.3h-40.5v-1.4h40.5v1.4Z"/>
  <path class="st1" d="M36.7,24v-4.8h1.5v4.8h-1.5Z"/>
  <path class="st1" d="M40.5,24v-4.8h1.5v4.8h-1.5Z"/>
  <path class="st0" d="M69.9,14.4c-2.3,0-4-.6-5.1-1.7-1.1-1.2-1.6-3-1.6-5.5s.6-4.2,1.7-5.4c1.1-1.2,2.8-1.8,5.1-1.8s.9,0,1.4.1c.5,0,1,.2,1.4.3.4.1.8.3,1.1.4.3.2.4.3.4.6s0,.4-.2.7c-.1.3-.3.6-.5.8-.2.2-.4.3-.6.3s-.2,0-.5-.2c-.2-.1-.6-.2-1-.3-.4-.1-1-.2-1.6-.2s-1.5.2-2,.5c-.5.3-.9.8-1.2,1.5-.2.7-.4,1.5-.4,2.5s0,1.4.2,2c.1.6.4,1.1.7,1.4.3.4.7.7,1.1.9.4.2.9.3,1.5.3s.8,0,1.2,0c.4,0,.8-.1,1.3-.3l-.9,1.4v-3.7h-1.8c-.4,0-.6-.3-.6-1v-.6c0-.7.2-1,.6-1h4.1c.5,0,.8.3.8.8v5.6c0,.3-.2.6-.5.8-.4.2-.8.4-1.3.5-.5.1-1,.2-1.6.2-.5,0-1,0-1.3,0Z"/>
  <path class="st0" d="M56.9,14.4c-.6,0-1.1,0-1.7-.3-.6-.2-1.1-.5-1.6-.9-.5-.4-.8-1-1.1-1.6-.3-.7-.4-1.5-.4-2.5s.2-2.4.5-3.4c.3-1,.8-1.8,1.3-2.4.5-.7,1.1-1.2,1.7-1.6.6-.4,1.2-.8,1.7-1,.6-.2,1-.4,1.4-.5.4,0,.6-.1.6-.1.2,0,.4.1.6.3.1.2.3.5.3.7,0,.3.1.5.1.6s0,.2,0,.3c0,0,0,0-.2.1-1,.3-1.9.8-2.7,1.5-.8.7-1.4,1.5-1.7,2.5.4-.2.8-.3,1.1-.4.3,0,.7-.1,1-.1s.8,0,1.2.2c.5.1.9.4,1.3.7.4.3.8.8,1,1.3.3.5.4,1.2.4,2.1s-.1,1.5-.4,2.1c-.3.6-.6,1-1.1,1.4-.5.3-1,.6-1.5.8-.6.2-1.1.2-1.7.2ZM56.9,12c.3,0,.6,0,.9-.3.3-.2.5-.4.6-.7.2-.3.2-.7.2-1.1s0-.8-.2-1.1c-.1-.3-.3-.5-.6-.7-.3-.2-.6-.2-1-.2s-.5,0-.8.1c-.3,0-.5.2-.8.3,0,.1,0,.3,0,.5v.5c0,.7,0,1.2.2,1.6.2.4.4.7.7.8.3.2.6.2.9.2Z"/>
  <path class="st0" d="M39.4,14.3c-.8,0-1.2-.2-1.2-.6V.8c0-.4.4-.6,1.2-.6h.9c.3,0,.6,0,.8.1.2,0,.4.2.6.4l4.6,7c.1.2.3.4.4.6.1.2.2.4.3.6h0c0-.2,0-.5,0-.6V.8c0-.4.4-.6,1.2-.6h.6c.8,0,1.2.2,1.2.6v12.9c0,.4-.4.6-1.2.6h-.8c-.3,0-.6,0-.8-.1-.2,0-.4-.2-.6-.4l-4.7-7.1c-.1-.2-.3-.4-.4-.6s-.2-.4-.3-.6h0c0,.2,0,.5,0,.7v7.5c0,.4-.4.6-1.2.6h-.6Z"/>
  <path class="st0" d="M28,14.2c-.5,0-.8-.3-.8-.8V1c0-.5.3-.8.8-.8h7.2c.4,0,.6.3.6,1v.6c0,.7-.2,1-.6,1h-4.8v2.9h4.3c.4,0,.6.3.6,1v.6c0,.7-.2,1-.6,1h-4.3v3.3h4.9c.4,0,.6.3.6,1v.6c0,.7-.2,1-.6,1h-7.2Z"/>
  <path class="st0" d="M16.6,14.3c-.8,0-1.2-.2-1.2-.6V1c0-.5.3-.8.8-.8h4.3c.4,0,1,0,1.5.2.6,0,1.1.3,1.6.6.5.3.9.7,1.3,1.3.3.6.5,1.4.5,2.3s-.1,1.4-.4,2c-.2.5-.6,1-1,1.3-.4.3-.8.6-1.2.7-.4.2-.8.3-1.2.3-.4,0-.7,0-.9,0h-2.2v4.7c0,.4-.4.6-1.2.6h-.7ZM18.5,6.3h1.8c.2,0,.4,0,.6,0,.2,0,.4-.1.6-.3.2-.1.3-.3.4-.5.1-.2.2-.5.2-.9s0-.9-.3-1.1c-.2-.3-.4-.4-.7-.5-.3,0-.5-.1-.8-.1h-1.8v3.5Z"/>
  <path class="st0" d="M6.5,14.4c-2.1,0-3.7-.6-4.9-1.9-1.1-1.2-1.7-3-1.7-5.3S.6,3.1,1.7,1.9C2.8.6,4.5,0,6.5,0s3.7.6,4.8,1.9c1.1,1.2,1.7,3,1.7,5.3s-.6,4.1-1.7,5.3c-1.1,1.2-2.7,1.9-4.8,1.9ZM6.5,11.8c1.1,0,1.9-.4,2.5-1.2.6-.8.8-1.9.8-3.4s-.3-2.6-.8-3.4c-.6-.8-1.4-1.2-2.5-1.2s-1.9.4-2.5,1.2c-.6.8-.8,1.9-.8,3.4s.3,2.6.8,3.4c.6.8,1.4,1.2,2.5,1.2Z"/>
  <path class="st1" d="M82.6,22.3h-40.5v-1.4h40.5v1.4Z"/>
</svg>